<?xml version="1.0" encoding="UTF-8"?>
<svg width="480px" height="480px" viewBox="0 0 480 480" version="1.1" xmlns="http://www.w3.org/2000/svg" xmlns:xlink="http://www.w3.org/1999/xlink">
    <!-- Generator: Sketch 53 (72520) - https://sketchapp.com -->
    <title>Grid</title>
    <desc>Created with Sketch.</desc>
    <defs>
        <radialGradient cx="38.3105469%" cy="38.2885742%" fx="38.3105469%" fy="38.2885742%" r="100%" id="radialGradient-1">
            <stop stop-color="#95C23D" offset="0%"></stop>
            <stop stop-color="#000000" offset="100%"></stop>
        </radialGradient>
        <path d="M480,160 L960,160 L960,640 L480,640 L480,160 Z M480,160 L620,160 L620,300 L480,300 L480,160 Z M820,160 L960,160 L960,300 L820,300 L820,160 Z M650,500 L790,500 L790,640 L650,640 L650,500 Z M820,500 L960,500 L960,640 L820,640 L820,500 Z M480,500 L620,500 L620,640 L480,640 L480,500 Z M480,330 L620,330 L620,470 L480,470 L480,330 Z M650,330 L790,330 L790,470 L650,470 L650,330 Z M820,330 L960,330 L960,470 L820,470 L820,330 Z M650,160 L790,160 L790,300 L650,300 L650,160 Z" id="path-2"></path>
    </defs>
    <g id="Page-1" stroke="none" stroke-width="1" fill="none" fill-rule="evenodd">
        <g id="Artboard" transform="translate(-480.000000, -160.000000)">
            <mask id="mask-3" fill="white">
                <use xlink:href="#path-2"></use>
            </mask>
            <use id="Grid" fill="url(#radialGradient-1)" xlink:href="#path-2"></use>
        </g>
    </g>
</svg>